
        <svg xmlns="http://www.w3.org/2000/svg" xmlns:xlink="http://www.w3.org/1999/xlink" version="1.1" width="3181.8181818181824" 
        height="1018.1818181818184" viewBox="0 0 3181.8181818181824 1018.1818181818184">
			
			<g transform="scale(9.090909090909092) translate(10, 10)">
				<defs id="SvgjsDefs1290"></defs><g id="SvgjsG1291" featureKey="symbolContainer" transform="matrix(1,0,0,1,0,0)" fill="#e84545">    <rect width="110" height="92"></rect></g><g id="SvgjsG1292" featureKey="symbolFeature-0" transform="matrix(1.1290322580645162,0,0,1.1290322580645162,19.43548387096774,10.483870967741936)" fill="#111111"><g xmlns="http://www.w3.org/2000/svg"><path d="M57.5,22.3c-0.3-4.8-4.1-8.7-8.9-9.3C46.6,7.6,41.4,4,35.5,4C30.1,4,25.3,7,23,11.7C16.2,7.5,3.3,11.1,3.5,23.8   c-1.9,1.9-3,4.5-3,7.2c0,5.5,4.5,10,10,10h3v-2h-3c-4.4,0-8-3.6-8-8c0-4.1,3.1-6.3,3.1-6.3c-1.5-9.6,9.7-16.8,18.3-9.9   c0,0,2.4-8.8,11.6-8.8c9.3,0,11.6,9,11.6,9c3.2-0.3,8.6,2.3,8.4,8.6c0,0,5,2,5,7.4c0,4.4-3.6,8-8,8h-4v2h4c5.5,0,10-4.5,10-10   C62.5,27.4,60.6,24.1,57.5,22.3z"></path><path d="M7.5,23h2c0-3.9,3.1-7,7-7v-2C11.5,14,7.5,18,7.5,23z"></path><path d="M51.5,22h-7.9l-1.3,10.2h-3.8v2h3.6L40.5,47H18.4l-1.8-14h1.9v-2h-4.1l2.3,18h23.6l-0.6,5h-2.3c-0.4-1.7-2-3-3.9-3   s-3.4,1.3-3.9,3h-2.3c-0.4-1.7-2-3-3.9-3s-3.4,1.3-3.9,3h-3.1v2h3.1c0.4,1.7,2,3,3.9,3s3.4-1.3,3.9-3h2.3c0.4,1.7,2,3,3.9,3   s3.4-1.3,3.9-3h4l4-32h6.1V22z M23.5,57c-1.1,0-2-0.9-2-2s0.9-2,2-2s2,0.9,2,2S24.6,57,23.5,57z M33.5,57c-1.1,0-2-0.9-2-2   s0.9-2,2-2s2,0.9,2,2S34.6,57,33.5,57z"></path><rect x="19.5" y="28" width="2" height="8"></rect><rect x="23.5" y="23" width="2" height="13"></rect><rect x="27.5" y="26" width="2" height="10"></rect><rect x="31.5" y="20" width="2" height="16"></rect><rect x="35.5" y="17" width="2" height="19"></rect></g></g><g id="SvgjsG1293" featureKey="nameFeature-0" transform="matrix(1.9179136134085386,0,0,1.9179136134085386,127.77498798121418,-10.173855843050422)" fill="#e84545"><path d="M6.84 23.32 c1.7867 2.2933 3.0869 4.42 3.9002 6.38 s1.0466 3.8867 0.69996 5.78 c-0.16 0.61332 -0.36668 1.2066 -0.62 1.78 s-0.58 1.0866 -0.98 1.54 s-0.89332 0.82 -1.48 1.1 s-1.2934 0.43332 -2.12 0.46 c-0.53332 0.02668 -1.02 -0.07332 -1.46 -0.3 s-0.83332 -0.42668 -1.18 -0.6 s-0.62 -0.24664 -0.82 -0.21996 s-0.31332 0.30668 -0.34 0.84 l-1.04 0 l0 -7.12 l1.08 0 c-0.08 0.58668 -0.1 1.14 -0.06 1.66 s0.11332 1.02 0.22 1.5 c0.10668 0.4 0.24 0.79332 0.4 1.18 s0.37332 0.74 0.64 1.06 s0.6 0.58668 1 0.8 s0.89332 0.33332 1.48 0.36 c0.4 0.02668 0.84 -0.08 1.32 -0.32 s0.86668 -0.54668 1.16 -0.92 c0.66668 -0.90668 0.94668 -1.88 0.84 -2.92 s-0.41336 -2.0533 -0.92004 -3.04 s-1.1067 -1.9267 -1.8 -2.82 s-1.28 -1.66 -1.76 -2.3 c-0.93332 -1.12 -1.6733 -2.2267 -2.22 -3.32 s-0.95336 -2.1466 -1.22 -3.16 s-0.4 -1.9933 -0.4 -2.94 s0.09332 -1.8467 0.28 -2.7 c0.34668 -1.28 0.9 -2.2733 1.66 -2.98 s1.9 -1.06 3.42 -1.06 c0.50668 0 0.96668 0.12668 1.38 0.38 s0.77332 0.47332 1.08 0.66 s0.54 0.26668 0.7 0.24 s0.26668 -0.32 0.32 -0.88 l1.12 0 l0 7 l-1.12 0 c0.05332 -1.2267 -0.04 -2.28 -0.28 -3.16 c-0.18668 -0.8 -0.52 -1.5333 -1 -2.2 s-1.2 -1 -2.16 -1 c-0.53332 0 -1.0333 0.10668 -1.5 0.32 s-0.84668 0.49332 -1.14 0.84 c-0.64 0.90668 -0.94 1.82 -0.9 2.74 s0.26668 1.82 0.68 2.7 s0.92664 1.7133 1.54 2.5 s1.1466 1.5 1.6 2.14 z M17.200000000000003 11.399999999999999 l-0.00015625 10.56 c0.05332 -0.08 0.14664 -0.21332 0.27996 -0.4 s0.34 -0.38668 0.62 -0.6 s0.63332 -0.4 1.06 -0.56 s0.93336 -0.24 1.52 -0.24 l0.12 0 c0.56 0 1.1133 0.11332 1.66 0.34 s1.0334 0.56668 1.46 1.02 s0.76668 1.0333 1.02 1.74 s0.38 1.54 0.38 2.5 l0 12.08 c0 0.50668 0.09332 0.82668 0.28 0.96 s0.34668 0.2 0.48 0.2 l0.2 0 c0.02668 0 0.05336 -0.01332 0.08004 -0.04 l0 1.04 l-4.84 0 l0 -1.04 c0.02668 0.02668 0.05336 0.04 0.08004 0.04 l0.16 0 c0.16 0 0.32 -0.05332 0.48 -0.16 s0.26668 -0.37336 0.32 -0.80004 l0 -2.14 l0 -2.7 l-0.02 -2.84 l-0.02 -2.6 l0 -1.94 l0 -0.94 l-0.04 0 l0 -0.04 c-0.05332 -1.36 -0.21332 -2.32 -0.48 -2.88 s-0.73336 -0.86668 -1.4 -0.92 l-0.12 0 c-0.82668 0 -1.5467 0.31332 -2.16 0.94 s-0.98664 1.7134 -1.12 3.26 l0 12.6 c0 0.50668 0.08668 0.82668 0.26 0.96 s0.34 0.2 0.5 0.2 l0.16 0 c0.02668 0 0.05336 -0.01332 0.08004 -0.04 l0 1.04 l-4.84 0 l0 -1.04 c0.02668 0.02668 0.05336 0.04 0.08004 0.04 l0.2 0 c0.13332 0 0.29332 -0.06668 0.48 -0.2 s0.28 -0.45332 0.28 -0.96 l0 -24.28 c0 -0.50668 -0.09332 -0.84 -0.28 -1 s-0.34668 -0.24 -0.48 -0.24 c-0.05332 0 -0.09332 0.0066796 -0.12 0.02 s-0.05336 0.02 -0.08004 0.02 l-0.08 0 l0 -0.96 l3.84 0 z M33.84 20.16 c0.64 0 1.2801 0.10672 1.9201 0.32004 s1.2267 0.54664 1.76 0.99996 s0.96664 1.04 1.3 1.76 s0.5 1.5733 0.5 2.56 l0 9.08 c0 0.77332 -0.17332 1.4933 -0.52 2.16 s-0.78 1.24 -1.3 1.72 s-1.1 0.86668 -1.74 1.16 s-1.28 0.44 -1.92 0.44 s-1.2867 -0.12 -1.94 -0.36 s-1.2333 -0.6 -1.74 -1.08 s-0.93336 -1.06 -1.28 -1.74 s-0.52 -1.4467 -0.52 -2.3 l0 -9 c0 -1.0133 0.16668 -1.88 0.5 -2.6 s0.76 -1.3133 1.28 -1.78 s1.1067 -0.80668 1.76 -1.02 s1.3 -0.32 1.94 -0.32 z M36.480000000000004 26.68 c0 -1.0133 -0.06 -1.8733 -0.18 -2.58 s-0.29332 -1.2734 -0.52 -1.7 s-0.50668 -0.72668 -0.84 -0.9 s-0.71332 -0.26 -1.14 -0.26 c-0.85332 0 -1.5066 0.39332 -1.96 1.18 s-0.68 2.2067 -0.68 4.26 l0 7.12 c0 2.0533 0.22668 3.5066 0.68 4.36 s1.1066 1.28 1.96 1.28 s1.5133 -0.42668 1.98 -1.28 s0.7 -2.3066 0.7 -4.36 l0 -7.12 z M48.56 20.16 c1.52 0.02668 2.7332 0.48656 3.6399 1.3799 s1.36 2.3133 1.36 4.26 l0 8.96 c0 1.9467 -0.45332 3.36 -1.36 4.24 s-2.12 1.3467 -3.64 1.4 l-0.12 0 c-0.45332 0 -0.86664 -0.05332 -1.24 -0.16 l-0.04 0 c-0.02668 0 -0.04 -0.01332 -0.04 -0.04 c-0.61332 -0.21332 -1.1466 -0.50664 -1.6 -0.87996 l-0.38 -0.38 l-0.3 -0.42 l0 6.64 c0 0.37332 0.05332 0.64664 0.16 0.81996 s0.21336 0.28664 0.32004 0.33996 c0.16 0.08 0.33332 0.08 0.52 0 l0 1 l-4.84 0 l0 -1 c0.21332 0.08 0.37332 0.08 0.48 0 c0.13332 -0.05332 0.26 -0.16664 0.38 -0.33996 s0.18 -0.44664 0.18 -0.81996 l0 -22.56 c0 -0.37332 -0.06 -0.64664 -0.18 -0.81996 s-0.24668 -0.28664 -0.38 -0.33996 c-0.10668 -0.05332 -0.26668 -0.05332 -0.48 0 l0 -0.96 l3.84 0 l0 1.56 c0.18668 -0.29332 0.41336 -0.56 0.68004 -0.8 c0.45332 -0.4 0.98664 -0.69332 1.6 -0.88 c0 -0.02668 0.01332 -0.04 0.04 -0.04 l0.04 0 c0.42668 -0.10668 0.84 -0.16 1.24 -0.16 l0.12 0 z M50.56 24.92 l0 -0.040039 c-0.02668 -1.36 -0.19336 -2.32 -0.50004 -2.88 s-0.80668 -0.86668 -1.5 -0.92 c-0.48 -0.02668 -0.93332 0.03332 -1.36 0.18 s-0.8 0.39336 -1.12 0.74004 s-0.58668 0.81336 -0.8 1.4 s-0.36 1.28 -0.44 2.08 l0 9.6 c0.08 0.82668 0.22668 1.5267 0.44 2.1 s0.48 1.0266 0.8 1.36 s0.69332 0.58 1.12 0.74 s0.88 0.22668 1.36 0.2 c0.69332 -0.05332 1.1933 -0.36 1.5 -0.92 s0.47336 -1.52 0.50004 -2.88 l0 -0.04 l0 -10.72 z M66.44 35.8 l0 4.1999 l-11.16 0 l0 -1.04 c0.21332 0.08 0.37332 0.08 0.48 0 c0.13332 -0.02668 0.26 -0.12668 0.38 -0.3 s0.18 -0.44664 0.18 -0.81996 l0 -24.28 c0 -0.4 -0.06 -0.68668 -0.18 -0.86 s-0.24668 -0.28664 -0.38 -0.33996 c-0.10668 -0.05332 -0.26668 -0.05332 -0.48 0 l0 -0.96 l11.16 0 l0 4.2 l-1.04 0 c-0.02668 -0.61332 -0.10668 -1.16 -0.24 -1.64 c-0.13332 -0.4 -0.35332 -0.78 -0.66 -1.14 s-0.72668 -0.54 -1.26 -0.54 l-4.16 0 l0 12.96 l2.8 0 c0.34668 0 0.61336 -0.09332 0.80004 -0.28 s0.32 -0.4 0.4 -0.64 c0.10668 -0.29332 0.16 -0.62664 0.16 -0.99996 l0.92 0 l0 4.92 l-0.92 0 c0 -0.37332 -0.05332 -0.69332 -0.16 -0.96 c-0.08 -0.26668 -0.21332 -0.5 -0.4 -0.7 s-0.45336 -0.3 -0.80004 -0.3 l-2.8 0 l0 12.76 l4.16 0 c0.53332 0 0.95332 -0.16 1.26 -0.48 s0.52668 -0.69332 0.66 -1.12 c0.13332 -0.48 0.21332 -1.0267 0.24 -1.64 l1.04 0 z M82.72 38.28 c0 0.21332 -0.05332 0.4332 -0.16 0.65988 s-0.26 0.44 -0.46 0.64 s-0.45332 0.38 -0.76 0.54 s-0.66 0.24 -1.06 0.24 c-0.64 0 -1.2133 -0.14668 -1.72 -0.44 s-0.85336 -0.68 -1.04 -1.16 c-0.16 -0.26668 -0.28 -0.57336 -0.36 -0.92004 c-0.34668 0.72 -0.87336 1.32 -1.58 1.8 s-1.4867 0.72 -2.34 0.72 c-1.0667 0 -2 -0.38668 -2.8 -1.16 c-0.45332 -0.4 -0.82664 -0.92 -1.12 -1.56 s-0.46664 -1.3733 -0.51996 -2.2 c-0.02668 -0.08 -0.04 -0.24 -0.04 -0.48 l0 -0.04 c0.02668 -0.45332 0.10668 -0.92664 0.24 -1.42 s0.34 -0.98664 0.62 -1.48 s0.61332 -0.96 1 -1.4 s0.80668 -0.82 1.26 -1.14 c0.10668 -0.05332 0.19336 -0.11332 0.26004 -0.18 s0.16668 -0.14 0.3 -0.22 l0.12 -0.06 l0.12 -0.06 c0.48 -0.29332 0.9 -0.56 1.26 -0.8 s0.68668 -0.46668 0.98 -0.68 c0.16 -0.10668 0.32 -0.22668 0.48 -0.36 s0.33332 -0.26664 0.52 -0.39996 c0.24 -0.16 0.46668 -0.34668 0.68 -0.56 s0.37332 -0.46664 0.48 -0.75996 c0.16 -0.26668 0.24 -0.58668 0.24 -0.96 s-0.04 -0.70664 -0.12 -0.99996 c-0.10668 -0.58668 -0.38 -1.0934 -0.82 -1.52 s-0.92668 -0.70668 -1.46 -0.84 c-0.24 -0.08 -0.46668 -0.12 -0.68 -0.12 c-0.74668 0 -1.3867 0.13332 -1.92 0.4 c-0.34668 0.16 -0.6 0.34 -0.76 0.54 s-0.24668 0.38668 -0.26 0.56 s0.02 0.31332 0.1 0.42 s0.18668 0.18668 0.32 0.24 c0.05332 0.02668 0.08664 0.04 0.09996 0.04 s0.04664 0.01332 0.09996 0.04 c0.34668 0.13332 0.63336 0.36664 0.86004 0.69996 s0.34 0.7 0.34 1.1 c0 0.50668 -0.18 0.94 -0.54 1.3 s-0.79332 0.54 -1.3 0.54 c-0.53332 0 -0.98664 -0.18 -1.36 -0.54 s-0.56 -0.79332 -0.56 -1.3 c0 -0.45332 0.06 -0.92664 0.18 -1.42 s0.3 -0.94 0.54 -1.34 c0.50668 -0.74668 1.1134 -1.2867 1.82 -1.62 s1.4867 -0.5 2.34 -0.5 c0.64 0 1.2733 0.12 1.9 0.36 s1.1867 0.58 1.68 1.02 s0.90664 0.96668 1.24 1.58 s0.5 1.32 0.5 2.12 l0 11.76 c0 0.48 0.0066796 0.79332 0.02 0.94 s0.02 0.24668 0.02 0.3 l0 0 c0 0.34668 0.10668 0.62668 0.32 0.84 s0.46664 0.32 0.75996 0.32 c0.34668 0 0.62668 -0.1 0.84 -0.3 s0.33332 -0.46 0.36 -0.78 l0.84 0 z M76.44000000000001 37.2799 c0.21332 -0.37332 0.33988 -0.77324 0.37988 -1.1999 s0.06 -0.82668 0.06 -1.2 l0 -7.4 c-0.10668 0.10668 -0.22 0.20668 -0.34 0.3 s-0.24668 0.20664 -0.38 0.33996 c-0.77332 0.56 -1.4333 1.0733 -1.98 1.54 s-1.0067 0.94668 -1.38 1.44 s-0.66664 1.02 -0.87996 1.58 s-0.34664 1.2 -0.39996 1.92 l0 0.6 c0.02668 1.0133 0.3 1.8066 0.82 2.38 s1.26 0.86 2.22 0.86 c0.42668 0 0.81336 -0.10668 1.16 -0.32 c0.34668 -0.24 0.58668 -0.52 0.72 -0.84 z M90.00000000000001 39.76 c-0.02668 0.02668 -0.046564 0.04 -0.059884 0.04 s-0.03332 0.01332 -0.06 0.04 l-0.04 0.04 c-0.05332 0.02668 -0.11332 0.05336 -0.18 0.08004 s-0.12668 0.05336 -0.18 0.08004 c-0.56 0.24 -1.2133 0.36 -1.96 0.36 c-0.42668 0 -0.84 -0.1 -1.24 -0.3 s-0.74668 -0.36668 -1.04 -0.5 s-0.54 -0.19332 -0.74 -0.18 s-0.3 0.20664 -0.3 0.57996 l-0.76 0 l0 -4.8 l0.96 0 c-0.05332 0.85332 0.04 1.5866 0.28 2.2 c0.16 0.53332 0.47332 1.0333 0.94 1.5 s1.1667 0.7 2.1 0.7 c0.61332 0 1.12 -0.10668 1.52 -0.32 c0.69332 -0.34668 1.1666 -0.76 1.42 -1.24 s0.35332 -0.98 0.3 -1.5 s-0.24664 -1.0333 -0.57996 -1.54 s-0.74 -0.97336 -1.22 -1.4 c-0.32 -0.24 -0.65332 -0.49332 -1 -0.76 s-0.69336 -0.54668 -1.04 -0.84 c-0.93332 -0.74668 -1.6733 -1.42 -2.22 -2.02 s-0.96668 -1.16 -1.26 -1.68 s-0.49332 -1.0133 -0.6 -1.48 s-0.16 -0.96668 -0.16 -1.5 c0 -0.32 0.02 -0.61332 0.06 -0.88 s0.08668 -0.50668 0.14 -0.72 c0.08 -0.45332 0.21332 -0.89332 0.4 -1.32 s0.45336 -0.80668 0.80004 -1.14 s0.77336 -0.60664 1.28 -0.81996 s1.12 -0.32 1.84 -0.32 c0.4 0 0.8 0.08668 1.2 0.26 s0.76 0.33332 1.08 0.48 s0.57332 0.21336 0.76 0.20004 s0.28 -0.22 0.28 -0.62 l0.76 0 l0 4.96 l-1.04 0 c0.02668 -0.8 -0.06664 -1.52 -0.27996 -2.16 c-0.18668 -0.56 -0.51336 -1.0667 -0.98004 -1.52 s-1.1534 -0.68 -2.06 -0.68 c-0.72 0 -1.3067 0.16 -1.76 0.48 c-0.24 0.18668 -0.44668 0.46 -0.62 0.82 s-0.27332 0.75332 -0.3 1.18 s0.04 0.88668 0.2 1.38 s0.48 0.95332 0.96 1.38 c0.05332 0.08 0.12664 0.16 0.21996 0.24 s0.19332 0.14668 0.3 0.2 c0.08 0.05332 0.14668 0.10664 0.2 0.15996 l0.16 0.16 c0.29332 0.24 0.59332 0.48 0.9 0.72 s0.62 0.48 0.94 0.72 c0.74668 0.64 1.3667 1.22 1.86 1.74 s0.90664 1.0067 1.24 1.46 s0.58 0.88 0.74 1.28 s0.25332 0.78668 0.28 1.16 c0.26668 1.2267 0.22 2.26 -0.14 3.1 s-0.82 1.5 -1.38 1.98 l-0.04 0 c0 0.05332 -0.02668 0.08 -0.08 0.08 c-0.05332 0.05332 -0.10664 0.09332 -0.15996 0.12 l-0.24 0.16 l-0.24 0.12 l0 0.04 c-0.02668 0 -0.05336 0.0066796 -0.08004 0.02 s-0.05336 0.02 -0.08004 0.02 z M100.16000000000001 20.16 c0.61332 0 1.2401 0.10684 1.8801 0.32016 s1.2133 0.54664 1.72 0.99996 s0.91336 1.0266 1.22 1.72 s0.46 1.52 0.46 2.48 l0 4.04 l0 0.12 l0 0.92 l-7.96 0 l0 4.12 c0 1.6533 0.28668 2.8333 0.86 3.54 s1.2866 1.0467 2.14 1.02 c0.50668 -0.02668 1.0067 -0.11336 1.5 -0.26004 s0.92 -0.39336 1.28 -0.74004 s0.66 -0.84 0.9 -1.48 s0.36 -1.48 0.36 -2.52 l0.92 0 l0 0.56 c0 0.72 -0.08 1.4067 -0.24 2.06 s-0.44 1.22 -0.84 1.7 s-0.91332 0.86 -1.54 1.14 s-1.3934 0.43332 -2.3 0.46 c-0.64 0 -1.2933 -0.12 -1.96 -0.36 s-1.2667 -0.6 -1.8 -1.08 s-0.97332 -1.0467 -1.32 -1.7 s-0.52 -1.3933 -0.52 -2.22 l0 -0.94 l-0.02 -1.54 l-0.02 -1.9 l-0.02 -1.98 l-0.02 -1.74 l0 -1.18 c0 -0.96 0.16668 -1.7933 0.5 -2.5 s0.74664 -1.28 1.24 -1.72 s1.0533 -0.77332 1.68 -1 s1.26 -0.34 1.9 -0.34 z M102.76 29.72 l0 -3.16 c0 -1.0133 -0.06668 -1.86 -0.2 -2.54 s-0.31332 -1.2267 -0.54 -1.64 s-0.5 -0.7 -0.82 -0.86 s-0.68 -0.24 -1.08 -0.24 c-0.85332 0 -1.5 0.37332 -1.94 1.12 s-0.66 2.1334 -0.66 4.16 l0 3.16 l5.24 0 z"></path></g>
			</g>
		</svg>
	